<mxfile host="app.diagrams.net" modified="2020-11-19T15:46:49.648Z" agent="5.0 (Windows NT 10.0; Win64; x64) AppleWebKit/537.36 (KHTML, like Gecko) Chrome/86.0.4240.198 Safari/537.36" etag="_i61wFHQoHI1lkJI2-vU" version="13.9.9" type="github">
  <diagram id="Zj-IJNFeUZnBrRP1qBrH" name="Page-1">
    <mxGraphModel dx="1662" dy="705" grid="1" gridSize="10" guides="1" tooltips="1" connect="1" arrows="1" fold="1" page="1" pageScale="1" pageWidth="850" pageHeight="1100" math="0" shadow="0">
      <root>
        <mxCell id="0" />
        <mxCell id="1" parent="0" />
        <mxCell id="HWPAAx-xTsZ_QWRCJdJR-23" value="" style="rounded=0;whiteSpace=wrap;html=1;" vertex="1" parent="1">
          <mxGeometry x="170" y="150" width="590" height="340" as="geometry" />
        </mxCell>
        <mxCell id="HWPAAx-xTsZ_QWRCJdJR-12" style="edgeStyle=orthogonalEdgeStyle;rounded=0;orthogonalLoop=1;jettySize=auto;html=1;entryX=0;entryY=0.5;entryDx=0;entryDy=0;" edge="1" parent="1" source="HWPAAx-xTsZ_QWRCJdJR-1" target="HWPAAx-xTsZ_QWRCJdJR-2">
          <mxGeometry relative="1" as="geometry" />
        </mxCell>
        <mxCell id="HWPAAx-xTsZ_QWRCJdJR-1" value="Actor" style="shape=umlActor;verticalLabelPosition=bottom;verticalAlign=top;html=1;outlineConnect=0;" vertex="1" parent="1">
          <mxGeometry x="120" y="235" width="30" height="60" as="geometry" />
        </mxCell>
        <mxCell id="HWPAAx-xTsZ_QWRCJdJR-15" style="edgeStyle=orthogonalEdgeStyle;rounded=0;orthogonalLoop=1;jettySize=auto;html=1;" edge="1" parent="1" source="HWPAAx-xTsZ_QWRCJdJR-2">
          <mxGeometry relative="1" as="geometry">
            <mxPoint x="300" y="265" as="targetPoint" />
          </mxGeometry>
        </mxCell>
        <mxCell id="HWPAAx-xTsZ_QWRCJdJR-2" value="Sign in" style="ellipse;whiteSpace=wrap;html=1;" vertex="1" parent="1">
          <mxGeometry x="190" y="240" width="90" height="50" as="geometry" />
        </mxCell>
        <mxCell id="HWPAAx-xTsZ_QWRCJdJR-14" style="edgeStyle=orthogonalEdgeStyle;rounded=0;orthogonalLoop=1;jettySize=auto;html=1;exitX=1;exitY=0.5;exitDx=0;exitDy=0;entryX=1;entryY=0.5;entryDx=0;entryDy=0;" edge="1" parent="1" source="HWPAAx-xTsZ_QWRCJdJR-3" target="HWPAAx-xTsZ_QWRCJdJR-4">
          <mxGeometry relative="1" as="geometry" />
        </mxCell>
        <mxCell id="HWPAAx-xTsZ_QWRCJdJR-3" value="Enter types of Restaurant / Business Name" style="ellipse;whiteSpace=wrap;html=1;" vertex="1" parent="1">
          <mxGeometry x="320" y="170" width="110" height="80" as="geometry" />
        </mxCell>
        <mxCell id="HWPAAx-xTsZ_QWRCJdJR-13" style="edgeStyle=orthogonalEdgeStyle;rounded=0;orthogonalLoop=1;jettySize=auto;html=1;entryX=0;entryY=0.5;entryDx=0;entryDy=0;exitX=0;exitY=0.5;exitDx=0;exitDy=0;" edge="1" parent="1" source="HWPAAx-xTsZ_QWRCJdJR-4" target="HWPAAx-xTsZ_QWRCJdJR-3">
          <mxGeometry relative="1" as="geometry" />
        </mxCell>
        <mxCell id="HWPAAx-xTsZ_QWRCJdJR-4" value="Enter Location" style="ellipse;whiteSpace=wrap;html=1;" vertex="1" parent="1">
          <mxGeometry x="330" y="290" width="100" height="70" as="geometry" />
        </mxCell>
        <mxCell id="HWPAAx-xTsZ_QWRCJdJR-18" style="edgeStyle=orthogonalEdgeStyle;rounded=0;orthogonalLoop=1;jettySize=auto;html=1;entryX=0;entryY=0.5;entryDx=0;entryDy=0;" edge="1" parent="1" source="HWPAAx-xTsZ_QWRCJdJR-5" target="HWPAAx-xTsZ_QWRCJdJR-6">
          <mxGeometry relative="1" as="geometry" />
        </mxCell>
        <mxCell id="HWPAAx-xTsZ_QWRCJdJR-5" value="Press Search" style="ellipse;whiteSpace=wrap;html=1;" vertex="1" parent="1">
          <mxGeometry x="480" y="240" width="100" height="60" as="geometry" />
        </mxCell>
        <mxCell id="HWPAAx-xTsZ_QWRCJdJR-19" style="edgeStyle=orthogonalEdgeStyle;rounded=0;orthogonalLoop=1;jettySize=auto;html=1;entryX=1;entryY=0.5;entryDx=0;entryDy=0;exitX=1;exitY=0.5;exitDx=0;exitDy=0;" edge="1" parent="1" source="HWPAAx-xTsZ_QWRCJdJR-6" target="HWPAAx-xTsZ_QWRCJdJR-8">
          <mxGeometry relative="1" as="geometry" />
        </mxCell>
        <mxCell id="HWPAAx-xTsZ_QWRCJdJR-6" value="List Search Results" style="ellipse;whiteSpace=wrap;html=1;" vertex="1" parent="1">
          <mxGeometry x="600" y="235" width="110" height="70" as="geometry" />
        </mxCell>
        <mxCell id="HWPAAx-xTsZ_QWRCJdJR-20" style="edgeStyle=orthogonalEdgeStyle;rounded=0;orthogonalLoop=1;jettySize=auto;html=1;entryX=1;entryY=0.5;entryDx=0;entryDy=0;" edge="1" parent="1" source="HWPAAx-xTsZ_QWRCJdJR-8" target="HWPAAx-xTsZ_QWRCJdJR-9">
          <mxGeometry relative="1" as="geometry" />
        </mxCell>
        <mxCell id="HWPAAx-xTsZ_QWRCJdJR-8" value="Click One of the Restaurants" style="ellipse;whiteSpace=wrap;html=1;" vertex="1" parent="1">
          <mxGeometry x="605" y="380" width="100" height="70" as="geometry" />
        </mxCell>
        <mxCell id="HWPAAx-xTsZ_QWRCJdJR-21" style="edgeStyle=orthogonalEdgeStyle;rounded=0;orthogonalLoop=1;jettySize=auto;html=1;entryX=1;entryY=0.5;entryDx=0;entryDy=0;" edge="1" parent="1" source="HWPAAx-xTsZ_QWRCJdJR-9" target="HWPAAx-xTsZ_QWRCJdJR-10">
          <mxGeometry relative="1" as="geometry" />
        </mxCell>
        <mxCell id="HWPAAx-xTsZ_QWRCJdJR-9" value="Show more Details" style="ellipse;whiteSpace=wrap;html=1;" vertex="1" parent="1">
          <mxGeometry x="460" y="375" width="110" height="80" as="geometry" />
        </mxCell>
        <mxCell id="HWPAAx-xTsZ_QWRCJdJR-22" style="edgeStyle=orthogonalEdgeStyle;rounded=0;orthogonalLoop=1;jettySize=auto;html=1;entryX=1;entryY=0.5;entryDx=0;entryDy=0;" edge="1" parent="1" source="HWPAAx-xTsZ_QWRCJdJR-10" target="HWPAAx-xTsZ_QWRCJdJR-11">
          <mxGeometry relative="1" as="geometry" />
        </mxCell>
        <mxCell id="HWPAAx-xTsZ_QWRCJdJR-10" value="Click on Add Favorites" style="ellipse;whiteSpace=wrap;html=1;" vertex="1" parent="1">
          <mxGeometry x="320" y="380" width="110" height="70" as="geometry" />
        </mxCell>
        <mxCell id="HWPAAx-xTsZ_QWRCJdJR-11" value="Added to the Favorites List" style="ellipse;whiteSpace=wrap;html=1;" vertex="1" parent="1">
          <mxGeometry x="180" y="377.5" width="100" height="75" as="geometry" />
        </mxCell>
        <mxCell id="HWPAAx-xTsZ_QWRCJdJR-17" value="" style="endArrow=classic;html=1;entryX=0;entryY=0.5;entryDx=0;entryDy=0;" edge="1" parent="1" target="HWPAAx-xTsZ_QWRCJdJR-5">
          <mxGeometry width="50" height="50" relative="1" as="geometry">
            <mxPoint x="450" y="270" as="sourcePoint" />
            <mxPoint x="490" y="180" as="targetPoint" />
          </mxGeometry>
        </mxCell>
      </root>
    </mxGraphModel>
  </diagram>
</mxfile>
